<?xml version="1.0" encoding="utf-8"?>
<!-- Generator: Adobe Illustrator 24.3.0, SVG Export Plug-In . SVG Version: 6.00 Build 0)  -->
<svg version="1.1" id="Слой_1" xmlns="http://www.w3.org/2000/svg" xmlns:xlink="http://www.w3.org/1999/xlink" x="0px" y="0px"
	 viewBox="0 0 1010 658" style="enable-background:new 0 0 1010 658;" xml:space="preserve">
<style type="text/css">
	.st0{fill:none;stroke:#ED1C24;stroke-miterlimit:10;}
	.st1{fill:#ED1C24;}
	.st2{font-family:'MyriadPro-Regular';}
	.st3{font-size:12px;}
	.st4{opacity:0.32;fill:#00FFFF;}
	.st5{opacity:0.32;fill:#FBB03B;}
	.st6{opacity:0.32;fill:#ED1C24;}
	.st7{opacity:0.32;fill:#603813;}
	.st8{opacity:0.32;fill:#C7B299;}
	.st9{opacity:0.32;fill:#1C00AA;}
	.st10{opacity:0.32;fill:#009245;}
	.st11{opacity:0.32;}
</style>
<path class="st0" d="M275,662L151,554l-1-4l-2-1v-5.74l-6-7.26v-7.55l13,2.55l3.53-2.55L161,534l9.02-5.55L178,519v-8l5-4l-2-8l-6-2
	l4-4l10-5l-2-5l-12,5l-6,1l-4,7l-1,4l-3,1h-5l-5,3l-9-0.32L127,499l-7,8l3,5l-48,23v-65.79l9-0.21l2-7l3-4l-2-5l-3-7l-9,1.26L70,427
	h-6.7h-3.32L55,418l2-3l1-2l-3-3.02L51,413l-9-1l4-12l2-3l-4-10l-4-1v-7.68L35,377v-2.77l2-4.23v-11l-7-9l-1-5l-2-5c0,0-8-3-7-3
	s8-8,8-8l-1-4l12-7l1-7l-4.02-1h-4.34L25,303l9-8l-12-8l-2.09-5.7L22,276l10,3l13-1v-8l-8-7l8-12l11-11l3-6l1-3h11.47L79,219l20-1
	l4-7l3,1h7l2,4l15.45-5l-1.45-5l-11-15l-4,2l-4-5l-1-20l5-1l-3-4l-9-2l-9,5l-4,3l-1-14l10-2l8-18l11,1l1-5l9-8l1-18l-3-5l2-11l-6-8
	l-10-49l56,4l19,9l3-1l137,1v7.28L429,84l61,83l86-19l34,49l38-16l19,1l26-11l19-3l7,2l4-4v-13.3l5-3.7h6l4,2h7l3-6l17,18v6.98
	L754,174l-1,4l3,4l-10,17l4,3l5-2l5,3l-3,4l-2,4l-3,3v3l4,3l3,1l4-1l2-1.26l1,1.26l-5,7l1,9l8,4v3.51l5,7.49v8.85l-6,1.15l-3,10
	l-7,8l7,7l3,1l5-4h5l1,6l5-5l5,4l6,2l5-15l3-3l3-2v-5.3l4-2.7l3-9l14-19h11l10-7l11,11l11-8l4,4l5-3l2,3l-3,7l-2,4l2,2l-3,3l-3,5
	l2,1h3l2,6l2,5.77l4,3.23l-1,3l-6,2l2,6l7,5l6,2l1,5l3,2l4,16l-5,2l2,5l-1,6l-10,7l3,5l10,1l9,2l4,6v7.55l-8,7.45l8,7.11v17.87
	L907,396l3,6l4,3.38l5,0.62l8,13v3.23l3,2.77l-7,4v4l-10,6l8,9l1,6l-5,4l3,7l6,11l4,5.98l2,3.02l-26,17l-2-2l-19,15l-2,11l-13,6
	l-2-6l-4,2l-4,2l-4-1l-1-4l-6-1l-30,17l1-4l-2-1h-4l-8,3l-16-2l-2,5l-4,2v13l-5,1v4l-7,2l-5-22l-3,4h-4l-3-1l-8,7l-1,2l-34,34l3,5
	l-11,11l3,5l-13,14l5,6l-5,2h-6l-9-2l-6-10l-7-2l-2-4l-1-7l-3,1h-6l-2-3l-6-4l-10-2l-5,4l-3-5v-2l-7-6l2-5l-2-6l10-4l1-13l-4-2l-4,3
	l-6-5l-12,11l1-17h-4l-6-9l-8,3l-4-4h-5l-4-3l-7-1l-18-41l-14,4l5,14h-6l-11,10l-7,2l-5,3l2,4l-6,5l-3-1l-21,12l-3-5l-12,4
	l3.96,6.74L453,571l5,8l-11,3l-3-2l-13,5l3,7l-21,11l-3-3l-7,1l-4,3l-11,1l-4-3l-4,4l-11-2l-17,5.38L340,611l4,4.51v14.81l-9,0.68
	l-9-1l-6,3h-8l-4-3l-3-15l-4-3l-3,5l-6,2h-10h-5l1,8l4,3l5,3l3,2v3h-6l-7,1l3,6l1,6l-6,2V662z"/>
<polyline class="st0" points="78.87,446.72 80,440 85,437 89,435 94,434 98,432 105,430 112,428 113,425 120,423 120,405.47 
	127,403 128,400 131,398 133.6,398 133.6,394.06 143,390 144,387 145,382 139.72,382 137,379 132,378 132,373 130,371 130,366 
	138,362 136,358 136,350 130,346 129,342 122,340 121,336 125,331 133.09,331 137,326 139,321 139,314 139.38,310 133,307 
	126.96,310 128,311 125,315 122,315 118,316 114,316 113,319 110,319 106,319 102,317 98,316 96,316 96,313 93,312 90,315 85,315 
	83.04,322 76,323 70,329 72,332 60,332 62,327 62,321 60,317.64 59,315 56,318 54,315 54,311.17 50.7,310 48,308 43.04,307 39,308 
	32.66,310 "/>
<path class="st0" d="M130.45,211l4.55-2l1,5l-1,2l1,4.96l2,4.04l1,6v4.26l-3,3.74l1,4v3l-1,4l2,2l1,2.66l-1,2.34l-2,1h-4.11l-2.89-1
	c0,0-0.4,0-1.7,1s-2.3,3-2.3,3s-1,1-2,2s-1,3-1,3l-1,3c0,0,1,2.4,0,3.7c-1,1.3-1,4.3-1,4.3v3.36c0,0,1,1.64,1,2.64s0,5,0,5
	s-1,2.19-1,3.6c0,1.4,0,3.79,0,4.6c0,0.81,0,1.62,0,2.21c0,0.6-1,3.6-1,3.6s0,3-1,3s-2.28,2-2.28,2v2.3L118,316"/>
<path class="st0" d="M124.6,200l4.4-1l2-2v-4.13c0,0,2-1.87,3-1.87s1.3,1,2.15,0c0.85-1,2.85,3.06,2.85,3.06l3,2.94l1,2l3.19,1
	c0,0,2.81,1,3.81,1s5-2,5-2l3-2l-2-3l2.62-3.16h3.06h3.23L169,193l2.72,2.92L174,198l5-1h6l3,1c0,0,0.85,3,1.43,3
	c0.57,0,5.28,0,5.28,0s4.3-3,5.3-3s7-1,7-1l5.57-1.08h3.91L215,194l-3-2l-1-7l-1-4l-1-3l4-2l1-2l1-2h2.34l2.66,1l4-4l4-2l2-3l4-3
	l1-3l5-3l5-3l2-2l-3-6l4-2h9h2.89v8.15L261,148l4-4l1-5v-5.36l-2-2.64l2-2.47h4.28L275,122l-4-1l-2-9l5-3l1-4.98l9,1.98v4.83l2,6.17
	l7-1l4-6V92.96L308,91l18-41.62"/>
<polyline class="st0" points="187,483 187,478.15 194,471 194,463.51 207,459 204,451 215,442 208,435 201,426.74 190,419 184,416 
	182,406 179,404 177,396 172.06,396 165.6,396 164,398 153,398 153,391.34 144,387 "/>
<path class="st0" d="M139,317.81l9-4.81v3l8.4-3v7.53l11.91-3.77V313l3.68-4l8.91-2h6.13v3h7.15l7.49-3l3.32-2l-2-4l12-1.57l3,2.57
	l11,1l10,1l-9.06,5.98L231,313l8,1.4l5,3.6v7.3h2.62L253,328l5,2l5,2h3.02l2.98,7l-22,2l1,3v5v3l1,3h4.77l2.23,3l-5,3l-5,2
	c0,0-5,1-6,2s-6,3-6,3l-2,4v7c0,0-0.72,7-0.36,8c0.36,1,1.36,6,1.36,6l-2,3h5.06c0,0,1.94,1,1.94,3s0,5,0,5s-1,3-1,4s2,7,2,7v5v2
	l-5,5l-7,5l-6,5l-6,5"/>
<polyline class="st0" points="239,417.55 250,416 250,439.34 261.94,446.72 260,453 274.87,446.72 279,451 281,462 296,471 
	296,479.17 292.57,483 295,487 299,489 299,492.11 307,501 298,503 296,509 299,513 297,516 292.57,516 293,512 290,513 289,518 
	276,520 273,524.45 269,522.4 267,520 263,522 260,518 258,519 226,521 226,526.49 220.4,526.49 220.4,536.02 226.87,536.02 
	227,539 224,542 224,547 215,547 208,556 200,560 206,574 202,578 202,584 202,587 195.83,593.05 "/>
<polyline class="st0" points="208.68,604.23 225,595 229.94,599.62 235,598 241,597 241,587.77 258,585 260,581 266.7,581 273,588 
	276,588 276,579.6 282,574 282,567 298,564 300,561 300,550.66 314.02,550.66 314,547 304,545 307,537.72 316,540 318.79,537.72 
	318.79,533.64 312,528 312,521 313,509 307,501 "/>
<polyline class="st0" points="231.88,303.29 236,293 239,289 239,281.04 244,275 242,259 237.94,248.36 231.88,239.68 
	237.94,233.55 244,235.6 251.42,224.87 263.73,218.74 267,214 274.19,214 274.19,209 263.73,209 260,214 251.42,205.98 253.04,201 
	257,193 256,187 249,181 242,184 231.88,186.57 225.3,184.02 225.3,188.11 219.04,181 220,173 "/>
<polyline class="st0" points="274.19,209 281,206 298.19,206 300.23,209 303.81,209 303.81,213.64 307,217.21 307,221.3 
	301.26,221.3 303,228 307,234.57 309.94,238.14 302,244 297.17,244 287,250 288,259 300.23,259 309.94,254.49 316,255 326,255.51 
	329,252 329,267.26 340,265 344,267.26 352,269.81 359,273 359,277.98 365.09,277.98 368,272 372,270 376,250 388,249 
	384.49,238.14 388,233.04 397,228 397,219.77 409,215 412,225 418,221 435,217 437,233 439,246 443,256 436,259 437,265 441,270 
	443,277.98 431,283 434,288 421,294 421.26,299.43 414.62,307 410,313 401.85,316 400.32,322 394.7,322 389.09,322 389.6,316 
	378.87,316 379.38,322 375,325 371,334 373,343 377.85,347 371,350 367.64,350 369,344 346,342 344,335.68 341,329 326,331.6 
	315,332 310,336 307,342.83 293,344 277,343 266.48,339.23 "/>
<polyline class="st0" points="437,233 463,213 489,185 498.87,185 514,166 516.65,161.11 "/>
<polyline class="st0" points="367.64,350 371,357 371,361.21 369.32,366.32 369.32,370.71 369.32,376.86 373,383 375,389 
	375,395.94 367.64,398.49 359,394 359,391.85 346.19,398.49 338,403 326,410.23 322,413 318.79,419.43 314,421 307,424.53 
	301.26,424.53 292,430 283.89,435 279.81,442 282.36,446.72 279,451 "/>
<polyline class="st0" points="375,395.94 379.38,400.5 379.38,404.62 389.09,404.62 392,411 392,420.96 399.3,420.96 404,429 
	404,435 411.55,442 416.15,446.72 416.15,440.36 423,440 423,435 429.43,442 422.79,451 412.06,451 412,457 406.45,457 395,464 
	390,462 387.04,451 383,453 383.98,464 383,466 378,475 375,478.15 368.66,478.15 363,481 372,493 371,499 363,501 357.43,501 
	352,507.26 344,509.3 338,511 338,504.52 331,508 322,508 318.79,513.38 312.26,517.83 "/>
<polyline class="st0" points="327,508 332.91,517.83 340,525 344,535.34 335.5,543 335.5,548.11 335.5,552.62 339,557 339,561 
	339,566 332,569 338,578 338,584 344,598.66 348.94,609.8 "/>
<polyline class="st0" points="371,499 375,501 377,506 394,514 396,513 396,508 399.81,504.52 413.6,504.52 414,511 416,512 
	416,517.83 421,527 424.83,527 438,520 440.91,527 439,529 440.91,530.74 446,528 448,526 448,522.83 456,520 461,517 466,516 
	472,514 469,504.52 467.72,501 474,496 480.74,496 486,494 491,490 493,487 500.91,483 503,481 501,478 503,475.09 501,469 
	494.53,469 488,468 484,464 482.28,456.88 480,452 484.57,451 481,445 482,421 478.19,421 471,424 464,426 459,426 456,428 453,424 
	448.83,421 446.02,421 446.53,416 439.89,416 437,418.15 432,420 427,421 424,424 419,426 414,428 411,429 407,429 404,429 "/>
<polyline class="st0" points="456,520 459,524 457.5,528.87 456,532.96 455,538 459,538 462,546 457,546 456.66,552.62 453,556 
	457.5,561.21 460.23,565.88 "/>
<polyline class="st0" points="502.04,479.56 506,486 514.19,482.78 514.19,475.77 514.19,471.68 522.7,471.68 529,469 536,465 
	540.06,465 542,468 547,469 549.6,473.37 549.6,475.5 554.02,475.5 555.38,483 558.79,483 560.49,486 558,490 555,494 553,496 "/>
<polyline class="st0" points="560.49,486 568.66,483 577.17,480.5 578.87,486 588.06,486 590.79,486 592.15,480.5 607.47,473.37 
	609,471 605,462 607,459 612.57,456.88 615,455 617,458 620.74,456.88 619,454 623.81,451 606,429 606,422 610,420 607.81,416 
	602,408 599.3,408 594,405 592,407 590.79,400.5 596.23,395.94 597,390 600.66,390 602,384 597.6,384 595,381 599,377 599,358 
	601,356 597,352 589.43,347 595,344 600,341 603,336 619,331 623.81,331 633,326 646.96,322 658,317 663,315 629,241 564,280 
	565,294 566,320 570.36,322 572,328 568,330 565,328 559,332 554,333 554,336.53 554,338.57 547.21,347 547.21,352.19 539,353 
	531.26,354.57 524,357 524,363.5 524,370.71 521,377 519.64,387 521,392 517,394 517,398.49 517,400.5 507,405 514,414 517,412 
	523,419 520,421 521,427 519,429 517.6,435 510,439 517,455 522.7,451 525.43,456.88 528,462 529,469 "/>
<polyline class="st0" points="427,421 427,414.83 431.13,414.83 431,410 427,405.3 427,401.89 437,395.94 440,399 447.47,395.94 
	454,390 458.36,387 458.36,375.68 451,380 449.51,375.68 452.57,375.68 455,354 458.36,347 462.79,347 464.83,347 467,337 486,308 
	493,306 497.17,310 497.17,315.09 503,311.68 509,308 516.65,306 524.4,303.29 539.72,299.43 550,299 558,296 565,294 "/>
<polyline class="st0" points="629,241 609.51,201 610,197 "/>
<polyline class="st0" points="663,315 663,330.74 667,335 669,340 669,344.02 678.96,347 678.96,351.51 681,353 675,355 
	675.21,357.5 692,355 694,359 691,369 696,372 698.7,372 703,366 716,366 724.23,363.5 728,362 731,352 725.94,343.5 726,334 
	731,327.34 738.82,328.15 747,329 756,330 758,327 758,320.53 762,317 767,317 773.26,315 777.68,310 782.11,310 790,300 
	797.43,300 796,290 "/>
<polyline class="st0" points="738.82,328.15 738.82,334.83 744.66,350 751,344 751,351.51 748,355 752.15,363.5 752.15,366.15 
	747.38,363.5 745.49,372 752,369 758.28,372 760,370 760,379.09 765.43,379.09 764.06,372 769.85,372 773,376 780,376 788,376 
	793,377 797.43,377.38 802.53,372 806,375 810.36,372 813.43,372 813.43,368.87 819,366 821.94,363.5 822,360 827,359 832.49,357.5 
	835,352 841.68,353.62 845,352 841.34,350 843,345 845,342.32 847,338 847,334.83 844,333 838,334 831.47,331 835,326 831.81,322 
	829,318 827,315 827.38,310 826,307 822.28,307 822.28,310 817.85,310 817,313 813.43,310 807.98,310 803.89,307 799,305 
	794.36,305 797.43,300 "/>
<polyline class="st0" points="896.3,326.19 893.43,322 889,321 882.87,321 880.83,322 878,317 872.66,322 866.87,322 865,324 
	860.74,322 857,328 850.19,322.5 845,324 843.38,328 844,333 "/>
<polyline class="st0" points="918.05,460.45 912.83,460.45 910,458 908.74,460.45 908.74,465 905,468 901.94,468 900.23,465 
	896.3,468 892.4,468 878,446 873,446 866,437 862.11,437 860,439 860,443.09 855,444 852,449 843.38,448.53 847,444.45 847,440.7 
	845.09,437 841,440 838.28,437 835.21,437 830,426 825,428 817,423 815,426 810.7,423 812.74,421 811,418 807,420 807,416 
	801.51,416 803,410 801.51,405.64 797.43,404.28 792.91,399.17 788,402 784,401 784,397.47 776,393 781,387 785,384 787.89,379.09 
	788,376 "/>
<polyline class="st0" points="623.81,451 628.91,451 634,446 631,444 632,439 647,441 653,441 663,441.72 672,441 678,443 
	683.04,439 688,418 703,414 694,398 700,382 696,372 "/>
<polyline class="st0" points="623.81,560.17 626,553 624.9,549.3 631,545 633,538 640,534 642.19,534 646,529 652.4,529 659,522 
	661,516 661,512.87 685,488 689,477 685.09,477 692.23,468 681,449 683.04,439 "/>
<polyline class="st0" points="724.23,363.5 724.23,369.21 718,369 721.12,376 721.12,383.17 721.12,388.62 721.12,391.68 
	718,396.79 718,400.19 721.12,403.26 730.21,409.04 736,409 743,407 743,413.47 738.82,417.89 734,418 734.11,422 738.82,421 
	743,422 749,425 749,429.81 743,432 741.6,439 741,444 733.5,447.51 726.96,451 721.51,451 718,452.28 712,460 706.87,460 703,465 
	699,464 696.32,465 694,464 690.46,465 "/>
<polyline class="st0" points="784,401 779,406 776,411.5 771.21,416 771.21,421 766.11,422 762,424 759,428 752,429 749,429.81 "/>
<polyline class="st0" points="721.12,376 729,376 733,379 738.82,379.09 741,383 745,386 749,388.62 747,396 747.38,401 752,404 
	752,408.7 752,414.25 752,421 749,425 "/>
<polyline class="st0" points="838.28,437 840,446 836,449 836,454.32 838,457.38 835,461 830,463 824.32,468 824.32,473.37 822,477 
	815.81,477 816,483 815.81,486 812.06,486 814,492 812.06,496 814,504 819,510 828,515 830.11,520 830,525 833,526 831.13,530.74 
	831.71,533.8 "/>
<polyline class="st0" points="685,488 699.38,488 703,496 708.91,499.59 711,507 711,511.17 707,516 708,524 708,529 711,533.8 
	714.02,533.8 714.02,539.09 717,545 717,552.7 724,553 728,550 730.21,553 741.26,553 741.26,556.79 743.64,560.17 "/>
<polyline class="st0" points="813.05,493.97 808,491 805.26,488 797,483 792.91,483 791,478 787.21,478 787.21,484.28 782.11,488 
	779,490 776,488 772,492 768.49,496 768.49,499.59 752,488.79 747,494 752,500.96 747,504.7 743.64,504.7 736.56,510.15 
	730.21,499.59 721.12,510.15 717.77,510.15 719.73,513.89 714.32,515.6 711,511.17 "/>
<text transform="matrix(1 0 0 1 191.4893 102.7021)" class="st1 st2 st3">16</text>
<text transform="matrix(1 0 0 1 299.2129 157.9785)" class="st1 st2 st3">21</text>
<text transform="matrix(1 0 0 1 405.9365 136.2764)" class="st1 st2 st3">21</text>
<text transform="matrix(1 0 0 1 87.8086 244.2764)" class="st1 st2 st3">26</text>
<text transform="matrix(1 0 0 1 69.4253 295.3403)" class="st1 st2 st3">26</text>
<text transform="matrix(1 0 0 1 182.7871 234.5747)" class="st1 st2 st3">4</text>
<text transform="matrix(1 0 0 1 174.1064 290.2339)" class="st1 st2 st3">4</text>
<text transform="matrix(1 0 0 1 78.1064 379.5957)" class="st1 st2 st3">23</text>
<text transform="matrix(1 0 0 1 178.7021 360.7021)" class="st1 st2 st3">27</text>
<text transform="matrix(1 0 0 1 288.4893 302.4893)" class="st1 st2 st3">14</text>
<text transform="matrix(1 0 0 1 257.3403 246.8296)" class="st1 st2 st3">14</text>
<text transform="matrix(1 0 0 1 407.9785 247.8511)" class="st1 st2 st3">14</text>
<text transform="matrix(1 0 0 1 378.3613 294.3193)" class="st1 st2 st3">14</text>
<text transform="matrix(1 0 0 1 496.8301 219.7661)" class="st1 st2 st3">25</text>
<text transform="matrix(1 0 0 1 413.5957 335.6807)" class="st1 st2 st3">25</text>
<text transform="matrix(1 0 0 1 615.8086 263.6807)" class="st1 st2 st3">30</text>
<text transform="matrix(1 0 0 1 682.1914 220.2764)" class="st1 st2 st3">10</text>
<text transform="matrix(1 0 0 1 704.1494 309.6382)" class="st1 st2 st3">10</text>
<text transform="matrix(1 0 0 1 788.4043 342.3193)" class="st1 st2 st3">18</text>
<text transform="matrix(1 0 0 1 841.5107 252.9575)" class="st1 st2 st3">3</text>
<text transform="matrix(1 0 0 1 839.9785 295.8511)" class="st1 st2 st3">3</text>
<text transform="matrix(1 0 0 1 857.3408 379.5957)" class="st1 st2 st3">24</text>
<text transform="matrix(1 0 0 1 856.8301 479.1699)" class="st1 st2 st3">17</text>
<text transform="matrix(1 0 0 1 799.1279 450.5742)" class="st1 st2 st3">7</text>
<text transform="matrix(1 0 0 1 764.4043 520.5322)" class="st1 st2 st3">28</text>
<text transform="matrix(1 0 0 1 667.8936 559.8506)" class="st1 st2 st3">22</text>
<text transform="matrix(1 0 0 1 605.085 513.8936)" class="st1 st2 st3">20</text>
<text transform="matrix(1 0 0 1 707.2129 429.6387)" class="st1 st2 st3">19</text>
<text transform="matrix(1 0 0 1 727.1279 392.8721)" class="st1 st2 st3">35</text>
<text transform="matrix(1 0 0 1 629.085 417.3828)" class="st1 st2 st3">54</text>
<text transform="matrix(1 0 0 1 553 380.1064)" class="st1 st2 st3">30</text>
<text transform="matrix(1 0 0 1 483.5527 377.5527)" class="st1 st2 st3">9</text>
<text transform="matrix(1 0 0 1 436.0635 481.7236)" class="st1 st2 st3">3</text>
<text transform="matrix(1 0 0 1 494.2764 507.7656)" class="st1 st2 st3">12</text>
<text transform="matrix(1 0 0 1 389.5957 550.6592)" class="st1 st2 st3">13</text>
<text transform="matrix(1 0 0 1 344.6597 568.0215)" class="st1 st2 st3">13</text>
<text transform="matrix(1 0 0 1 298.7021 586.915)" class="st1 st2 st3">8</text>
<text transform="matrix(1 0 0 1 258.3618 549.1279)" class="st1 st2 st3">1</text>
<text transform="matrix(1 0 0 1 234.3618 478.6592)" class="st1 st2 st3">15</text>
<text transform="matrix(1 0 0 1 342.6172 449.043)" class="st1 st2 st3">6</text>
<text transform="matrix(1 0 0 1 293.085 386.7451)" class="st1 st2 st3">2</text>
<text transform="matrix(1 0 0 1 135.2979 457.7236)" class="st1 st2 st3">29</text>
<rect x="606" y="367" class="st4" width="101" height="47"/>
<rect x="505" y="388" class="st5" width="101" height="47"/>
<rect x="707" y="400" class="st4" width="101" height="47"/>
<rect x="606" y="414" class="st6" width="101" height="47"/>
<rect x="505" y="341" class="st7" width="101" height="47"/>
<rect x="606" y="320" class="st6" width="101" height="47"/>
<rect x="707" y="353" class="st6" width="101" height="47"/>
<rect x="707" y="306" class="st5" width="101" height="47"/>
<rect x="606" y="273" class="st4" width="101" height="47"/>
<rect x="505" y="294" class="st6" width="101" height="47"/>
<rect x="606" y="461" class="st8" width="101" height="47"/>
<rect x="707" y="447" class="st6" width="101" height="47"/>
<rect x="202" y="376" class="st5" width="101" height="47"/>
<rect x="404" y="388" class="st4" width="101" height="47"/>
<rect x="202" y="329" class="st9" width="101" height="47"/>
<rect x="303" y="308" class="st7" width="101" height="47"/>
<rect x="404" y="341" class="st6" width="101" height="47"/>
<rect x="404" y="294" class="st4" width="101" height="47"/>
<rect x="303" y="261" class="st6" width="101" height="47"/>
<rect x="202" y="282" class="st4" width="101" height="47"/>
<rect x="303" y="449" class="st4" width="101" height="47"/>
<rect x="404" y="435" class="st6" width="101" height="47"/>
<rect x="303" y="402" class="st10" width="101" height="47"/>
<rect x="303" y="355" class="st4" width="101" height="47"/>
<rect x="303" y="73" class="st6" width="101" height="47"/>
<rect x="303" y="26" class="st10" width="101" height="47"/>
<rect x="303" y="214" class="st4" width="101" height="47"/>
<rect x="303" y="167" class="st6" width="101" height="47"/>
<rect x="303" y="120" class="st5" width="101" height="47"/>
<rect x="404" y="106" class="st8" width="101" height="47"/>
<rect x="404" y="59" class="st5" width="101" height="47"/>
<rect x="404" y="247" class="st6" width="101" height="47"/>
<rect x="404" y="200" class="st5" width="101" height="47"/>
<rect x="404" y="153" class="st10" width="101" height="47"/>
<rect x="505" y="106" class="st6" width="101" height="47"/>
<rect x="505" y="247" class="st4" width="101" height="47"/>
<rect x="505" y="200" class="st6" width="101" height="47"/>
<rect x="505" y="153" class="st5" width="101" height="47"/>
<rect x="606" y="226" class="st11" width="101" height="47"/>
<rect x="606" y="179" class="st7" width="101" height="47"/>
<rect x="606" y="132" class="st6" width="101" height="47"/>
<rect x="707" y="118" class="st10" width="101" height="47"/>
<rect x="707" y="259" class="st6" width="101" height="47"/>
<rect x="707" y="212" class="st4" width="101" height="47"/>
<rect x="707" y="165" class="st6" width="101" height="47"/>
<rect x="808" y="259" class="st11" width="101" height="47"/>
<rect x="808" y="212" class="st6" width="101" height="47"/>
<rect x="808" y="400" class="st6" width="101" height="47"/>
<rect x="808" y="353" class="st10" width="101" height="47"/>
<rect x="808" y="306" class="st4" width="101" height="47"/>
<rect x="808" y="494" class="st6" width="101" height="47"/>
<rect x="808" y="447" class="st5" width="101" height="47"/>
<rect x="909" y="353" class="st4" width="101" height="47"/>
<rect x="909" y="306" class="st7" width="101" height="47"/>
<rect x="909" y="494" class="st5" width="101" height="47"/>
<rect x="909" y="447" class="st7" width="101" height="47"/>
<rect x="909" y="400" class="st8" width="101" height="47"/>
<rect x="707" y="541" class="st8" width="101" height="47"/>
<rect x="707" y="494" class="st5" width="101" height="47"/>
<rect x="707" y="588" class="st10" width="101" height="47"/>
<rect x="606" y="555" class="st6" width="101" height="47"/>
<rect x="606" y="508" class="st4" width="101" height="47"/>
<rect x="606" y="602" class="st5" width="101" height="47"/>
<rect x="505" y="482" class="st6" width="101" height="47"/>
<rect x="505" y="435" class="st4" width="101" height="47"/>
<rect x="505" y="529" class="st10" width="101" height="47"/>
<rect x="404" y="529" class="st6" width="101" height="47"/>
<rect x="404" y="482" class="st4" width="101" height="47"/>
<rect x="404" y="576" class="st5" width="101" height="47"/>
<rect x="303" y="543" class="st10" width="101" height="47"/>
<rect x="303" y="496" class="st6" width="101" height="47"/>
<rect x="303" y="590" class="st6" width="101" height="47"/>
<rect x="202" y="470" class="st5" width="101" height="47"/>
<rect x="202" y="423" class="st9" width="101" height="47"/>
<rect x="202" y="611" class="st7" width="101" height="47"/>
<rect x="202" y="564" class="st6" width="101" height="47"/>
<rect x="202" y="517" class="st4" width="101" height="47"/>
<rect x="101" y="423" class="st5" width="101" height="47"/>
<rect x="101" y="376" class="st4" width="101" height="47"/>
<rect x="101" y="564" class="st10" width="101" height="47"/>
<rect x="101" y="517" class="st6" width="101" height="47"/>
<rect x="101" y="470" class="st4" width="101" height="47"/>
<rect y="377" class="st6" width="101" height="47"/>
<rect y="330" class="st4" width="101" height="47"/>
<rect y="518" class="st5" width="101" height="47"/>
<rect y="471" class="st7" width="101" height="47"/>
<rect y="424" class="st5" width="101" height="47"/>
<rect y="142" class="st7" width="101" height="47"/>
<rect y="283" class="st5" width="101" height="47"/>
<rect y="236" class="st6" width="101" height="47"/>
<rect y="189" class="st5" width="101" height="47"/>
<rect x="101" y="188" class="st6" width="101" height="47"/>
<rect x="101" y="141" class="st5" width="101" height="47"/>
<rect x="101" y="329" class="st7" width="101" height="47"/>
<rect x="101" y="282" class="st6" width="101" height="47"/>
<rect x="101" y="235" class="st4" width="101" height="47"/>
<rect x="202" y="94" class="st8" width="101" height="47"/>
<rect x="202" y="47" class="st5" width="101" height="47"/>
<rect x="202" y="235" class="st5" width="101" height="47"/>
<rect x="202" y="188" class="st5" width="101" height="47"/>
<rect x="202" y="141" class="st4" width="101" height="47"/>
<rect x="101" y="94" class="st6" width="101" height="47"/>
<rect x="101" y="47" class="st7" width="101" height="47"/>
<rect x="101" y="0" class="st10" width="101" height="47"/>
<rect x="202" y="0" class="st6" width="101" height="47"/>
</svg>
